<svg width="768" height="886" viewBox="0 0 768 886" fill="none" xmlns="http://www.w3.org/2000/svg">
<path d="M377.213 67.3679H426.13V152.798H377.213V67.3679Z" fill="black"/>
<path d="M463.938 42.7592C463.938 52.7443 457.386 62.3207 445.724 69.3812C434.062 76.4418 418.245 80.4083 401.753 80.4083C385.26 80.4083 369.443 76.4418 357.781 69.3812C346.119 62.3207 339.567 52.7443 339.567 42.7592C339.567 32.774 346.119 23.198 357.781 16.1374C369.443 9.0768 385.26 5.10999 401.753 5.10999C418.245 5.10999 434.062 9.0768 445.724 16.1374C457.386 23.198 463.938 32.774 463.938 42.7592Z" stroke="black" stroke-width="1.66075"/>
<path d="M757.764 506.492C757.764 600.732 720.252 691.111 653.478 757.748C586.705 824.385 496.14 861.822 401.708 861.822C307.276 861.822 216.712 824.385 149.939 757.748C83.1653 691.111 45.6523 600.732 45.6523 506.492C45.6523 412.253 83.1653 321.874 149.939 255.237C216.712 188.599 307.276 151.163 401.708 151.163C496.14 151.163 586.705 188.599 653.478 255.237C720.252 321.874 757.764 412.253 757.764 506.492Z" fill="#C5C5C5" stroke="black" stroke-width="3.54336" stroke-linejoin="round"/>
<path d="M227.964 218.877L238.555 212.775L263.014 255.052L252.423 261.154L227.964 218.877Z" fill="black"/>
<path d="M696.081 668.903L689.966 679.473L647.602 655.064L653.717 644.495L696.081 668.903Z" fill="black"/>
<path d="M689.06 512.826V500.622H737.977V512.826H689.06Z" fill="black"/>
<path d="M539.811 757.913L550.402 751.81L574.861 794.088L564.27 800.19L539.811 757.913Z" fill="black"/>
<path d="M653.357 368.366L647.242 357.797L689.606 333.388L695.721 343.957L653.357 368.366Z" fill="black"/>
<path d="M550.762 261.05L540.171 254.948L564.63 212.671L575.221 218.773L550.762 261.05Z" fill="black"/>
<path d="M252.783 751.706L263.374 757.808L238.915 800.086L228.324 793.984L252.783 751.706Z" fill="black"/>
<path d="M114.283 500.622V512.826H65.3656V500.622H114.283Z" fill="black"/>
<path d="M149.468 644.599L155.583 655.168L113.219 679.577L107.104 669.007L149.468 644.599Z" fill="black"/>
<path d="M155.943 357.693L149.828 368.262L107.464 343.853L113.579 333.284L155.943 357.693Z" fill="black"/>
<path d="M395.557 793.526H407.786V842.343H395.557V793.526Z" fill="black"/>
<path d="M395.557 171.105H407.786V219.922H395.557V171.105Z" fill="black"/>
<path d="M234.252 409.639L387.73 527.624L413.378 483.291L234.252 409.639Z" fill="white" stroke="black" stroke-width="0.5501" stroke-linejoin="round"/>
<path d="M401.671 181.723L389.018 507.127H414.325L401.671 181.723Z" fill="white" stroke="black" stroke-width="0.5035" stroke-linejoin="round"/>
<path d="M438.18 506.494C438.18 516.156 434.334 525.423 427.487 532.255C420.641 539.088 411.355 542.926 401.673 542.926C391.991 542.926 382.705 539.088 375.859 532.255C369.012 525.423 365.166 516.156 365.166 506.494C365.166 496.831 369.012 487.565 375.859 480.732C382.705 473.9 391.991 470.061 401.673 470.061C411.355 470.061 420.641 473.9 427.487 480.732C434.334 487.565 438.18 496.831 438.18 506.494Z" fill="black"/>
<g clip-path="url(#clip0_3_231)">
<path d="M401 863C597.061 863 756 704.061 756 508C756 311.939 597.061 153 401 153C204.939 153 46 311.939 46 508C46 704.061 204.939 863 401 863Z" fill="#209CE9"/>
<path d="M567.266 732.176H532.742L401.723 528.091L268.704 732.176H234.466L383.547 500.966L247.747 288.572H282.943L402.282 475.388L524.147 288.572H557.17L419.908 500.36L567.266 732.176Z" fill="white"/>
<path d="M267.209 487.448H535.642V512.678H267.209V487.448ZM267.209 563.138H535.653V588.369H267.198L267.209 563.138Z" fill="white"/>
</g>
<path d="M226.922 217.625L237.599 211.413L262.257 254.445L251.58 260.656L226.922 217.625Z" fill="black"/>
<path d="M698.848 675.682L692.683 686.44L649.975 661.596L656.139 650.838L698.848 675.682Z" fill="black"/>
<path d="M691.77 516.82V504.397H741.086V516.82H691.77Z" fill="black"/>
<path d="M541.307 766.279L551.984 760.068L576.642 803.1L565.965 809.311L541.307 766.279Z" fill="black"/>
<path d="M655.777 369.781L649.612 359.023L692.321 334.179L698.485 344.937L655.777 369.781Z" fill="black"/>
<path d="M552.347 260.551L541.67 254.339L566.328 211.308L577.005 217.519L552.347 260.551Z" fill="black"/>
<path d="M251.942 759.963L262.62 766.174L237.962 809.205L227.285 802.994L251.942 759.963Z" fill="black"/>
<path d="M112.315 504.398V516.82H63V504.398H112.315Z" fill="black"/>
<path d="M147.787 650.943L153.952 661.701L111.243 686.546L105.079 675.788L147.787 650.943Z" fill="black"/>
<path d="M154.314 358.917L148.15 369.675L105.441 344.831L111.606 334.073L154.314 358.917Z" fill="black"/>
<path d="M395.878 802.529H408.207V852.217H395.878V802.529Z" fill="black"/>
<path d="M395.878 169H408.207V218.689H395.878V169Z" fill="black"/>
<g style="mix-blend-mode:multiply">
<path d="M233.261 411.791L387.988 531.882L413.845 486.757L233.261 411.791Z" fill="#847D7D"/>
<path d="M233.261 411.791L387.988 531.882L413.845 486.757L233.261 411.791Z" stroke="black" stroke-width="0.5501" stroke-linejoin="round"/>
</g>
<g style="mix-blend-mode:multiply">
<path d="M402.043 179.807L389.286 511.019H414.799L402.043 179.807Z" fill="#847D7D"/>
<path d="M402.043 179.807L389.286 511.019H414.799L402.043 179.807Z" stroke="black" stroke-width="0.5035" stroke-linejoin="round"/>
</g>
<g style="mix-blend-mode:multiply">
<path d="M438.848 510.374C438.848 520.209 434.971 529.641 428.069 536.595C421.167 543.55 411.805 547.456 402.044 547.456C392.283 547.456 382.922 543.55 376.02 536.595C369.118 529.641 365.24 520.209 365.24 510.374C365.24 500.539 369.118 491.107 376.02 484.153C382.922 477.198 392.283 473.292 402.044 473.292C411.805 473.292 421.167 477.198 428.069 484.153C434.971 491.107 438.848 500.539 438.848 510.374Z" fill="black" fill-opacity="0.9"/>
</g>
<defs>
<clipPath id="clip0_3_231">
<rect width="710" height="710" fill="white" transform="translate(46 153)"/>
</clipPath>
</defs>
</svg>
